G04 #@! TF.GenerationSoftware,KiCad,Pcbnew,(5.1.2-1)-1*
G04 #@! TF.CreationDate,2019-10-04T22:48:54-06:00*
G04 #@! TF.ProjectId,USBCBreakout,55534243-4272-4656-916b-6f75742e6b69,rev?*
G04 #@! TF.SameCoordinates,Original*
G04 #@! TF.FileFunction,Soldermask,Top*
G04 #@! TF.FilePolarity,Negative*
%FSLAX46Y46*%
G04 Gerber Fmt 4.6, Leading zero omitted, Abs format (unit mm)*
G04 Created by KiCad (PCBNEW (5.1.2-1)-1) date 2019-10-04 22:48:54*
%MOMM*%
%LPD*%
G04 APERTURE LIST*
%ADD10R,0.700000X1.600000*%
%ADD11C,1.050000*%
%ADD12R,0.600000X1.400000*%
%ADD13O,1.400000X2.000000*%
%ADD14R,2.430000X1.540000*%
%ADD15R,1.700000X1.900000*%
%ADD16C,4.800000*%
%ADD17C,1.250000*%
%ADD18R,1.250000X1.250000*%
%ADD19R,1.100000X1.000000*%
%ADD20R,1.100000X1.400000*%
G04 APERTURE END LIST*
D10*
X102762416Y-49870592D03*
X102262416Y-49870592D03*
X101762416Y-49870592D03*
X101262416Y-49870592D03*
X100762416Y-49870592D03*
X100262416Y-49870592D03*
X99762416Y-49870592D03*
X99262416Y-49870592D03*
X98762416Y-49870592D03*
X98262416Y-49870592D03*
X97762416Y-49870592D03*
X97262416Y-49870592D03*
D11*
X97212416Y-48620592D03*
X97612416Y-47920592D03*
X98012416Y-48620592D03*
X98412416Y-47920592D03*
X98812416Y-48620592D03*
X99212416Y-47920592D03*
X99612416Y-48620592D03*
X100412416Y-48620592D03*
X100812416Y-47910592D03*
X101212416Y-48620592D03*
X101612416Y-47920592D03*
X102412416Y-47920592D03*
X102012416Y-48620592D03*
D12*
X100012416Y-45290592D03*
X100012416Y-42190592D03*
D13*
X104282416Y-47470592D03*
X104282416Y-42740592D03*
X95742416Y-42740592D03*
X95742416Y-47470592D03*
D11*
X102812416Y-48620592D03*
D14*
X106012416Y-53090592D03*
X106012416Y-55490592D03*
D15*
X101798352Y-53940592D03*
X101798352Y-56640592D03*
X98226480Y-53940592D03*
X98226480Y-56640592D03*
D16*
X112012416Y-58290592D03*
X88012416Y-58290592D03*
D17*
X102762416Y-68900000D03*
X101512416Y-68900000D03*
X100262416Y-68900000D03*
D18*
X99012416Y-68900000D03*
D19*
X99012416Y-59340592D03*
X101012416Y-59340592D03*
X99012416Y-61240592D03*
D20*
X101012416Y-61040592D03*
M02*
