G04 #@! TF.GenerationSoftware,KiCad,Pcbnew,(5.1.2-1)-1*
G04 #@! TF.CreationDate,2019-10-04T22:48:53-06:00*
G04 #@! TF.ProjectId,USBCBreakout,55534243-4272-4656-916b-6f75742e6b69,rev?*
G04 #@! TF.SameCoordinates,Original*
G04 #@! TF.FileFunction,Copper,L2,Bot*
G04 #@! TF.FilePolarity,Positive*
%FSLAX46Y46*%
G04 Gerber Fmt 4.6, Leading zero omitted, Abs format (unit mm)*
G04 Created by KiCad (PCBNEW (5.1.2-1)-1) date 2019-10-04 22:48:53*
%MOMM*%
%LPD*%
G04 APERTURE LIST*
%ADD10C,0.650000*%
%ADD11O,1.000000X1.600000*%
%ADD12C,4.400000*%
%ADD13C,0.850000*%
%ADD14R,0.850000X0.850000*%
%ADD15C,0.800000*%
%ADD16C,0.250000*%
%ADD17C,0.152400*%
%ADD18C,0.254000*%
G04 APERTURE END LIST*
D10*
X97212416Y-48620592D03*
X97612416Y-47920592D03*
X98012416Y-48620592D03*
X98412416Y-47920592D03*
X98812416Y-48620592D03*
X99212416Y-47920592D03*
X99612416Y-48620592D03*
X100412416Y-48620592D03*
X100812416Y-47910592D03*
X101212416Y-48620592D03*
X101612416Y-47920592D03*
X102412416Y-47920592D03*
X102012416Y-48620592D03*
D11*
X104282416Y-47470592D03*
X104282416Y-42740592D03*
X95742416Y-42740592D03*
X95742416Y-47470592D03*
D10*
X102812416Y-48620592D03*
D12*
X112012416Y-58290592D03*
X88012416Y-58290592D03*
D13*
X102762416Y-68900000D03*
X101512416Y-68900000D03*
X100262416Y-68900000D03*
D14*
X99012416Y-68900000D03*
D15*
X97012416Y-63290592D03*
X99062415Y-62290592D03*
X101012416Y-62290592D03*
X97012416Y-58290592D03*
X104012416Y-58290592D03*
X100012416Y-60290592D03*
X102012416Y-58290592D03*
D16*
X98062415Y-63290592D02*
X99062415Y-62290592D01*
X97012416Y-63290592D02*
X98062415Y-63290592D01*
X101402798Y-49270593D02*
X101212416Y-49080211D01*
X104012416Y-44290592D02*
X105107426Y-45385602D01*
X105107426Y-48112322D02*
X103949155Y-49270593D01*
X96012416Y-44290592D02*
X104012416Y-44290592D01*
X98812416Y-48620592D02*
X98812416Y-49080211D01*
X103949155Y-49270593D02*
X101402798Y-49270593D01*
X98622034Y-49270593D02*
X96075677Y-49270593D01*
X96075677Y-49270593D02*
X94917406Y-48112322D01*
X94917406Y-45385602D02*
X96012416Y-44290592D01*
X105107426Y-45385602D02*
X105107426Y-48112322D01*
X101212416Y-49080211D02*
X101212416Y-48620592D01*
X94917406Y-48112322D02*
X94917406Y-45385602D01*
X98812416Y-49080211D02*
X98622034Y-49270593D01*
X102762416Y-64040592D02*
X101012416Y-62290592D01*
X102762416Y-68900000D02*
X102762416Y-64040592D01*
X96887417Y-48295593D02*
X97212416Y-48620592D01*
X96887417Y-47683589D02*
X96887417Y-48295593D01*
X97310415Y-47260591D02*
X96887417Y-47683589D01*
X102714417Y-47260591D02*
X97310415Y-47260591D01*
X103137415Y-47683589D02*
X102714417Y-47260591D01*
X103137415Y-48295593D02*
X103137415Y-47683589D01*
X102812416Y-48620592D02*
X103137415Y-48295593D01*
X100446731Y-62290592D02*
X101012416Y-62290592D01*
X97012416Y-58856277D02*
X100446731Y-62290592D01*
X97012416Y-58290592D02*
X97012416Y-58856277D01*
X101012416Y-61290592D02*
X104012416Y-58290592D01*
X101012416Y-62290592D02*
X101012416Y-61290592D01*
D17*
X102738617Y-51637320D02*
X102738617Y-58639169D01*
X100412416Y-49311119D02*
X102738617Y-51637320D01*
X101087194Y-60290592D02*
X100012416Y-60290592D01*
X102738617Y-58639169D02*
X101087194Y-60290592D01*
X100412416Y-48620592D02*
X100412416Y-49311119D01*
X102012416Y-51480211D02*
X102012416Y-58290592D01*
X99612416Y-49080211D02*
X102012416Y-51480211D01*
X99612416Y-48620592D02*
X99612416Y-49080211D01*
D16*
X95742416Y-42740592D02*
X104282416Y-42740592D01*
D18*
G36*
X114767163Y-41095873D02*
G01*
X115498059Y-41295823D01*
X116181991Y-41622042D01*
X116797344Y-42064218D01*
X117324675Y-42608381D01*
X117747302Y-43237318D01*
X118051879Y-43931162D01*
X118230131Y-44673631D01*
X118277416Y-45317541D01*
X118277417Y-71257850D01*
X118207135Y-72045340D01*
X118007185Y-72776235D01*
X117680966Y-73460167D01*
X117238790Y-74075520D01*
X116694627Y-74602851D01*
X116065690Y-75025478D01*
X115371845Y-75330056D01*
X114629377Y-75508306D01*
X113985467Y-75555592D01*
X86045147Y-75555592D01*
X85257668Y-75485311D01*
X84526773Y-75285361D01*
X83842841Y-74959142D01*
X83227488Y-74516966D01*
X82700157Y-73972803D01*
X82277530Y-73343866D01*
X81972952Y-72650021D01*
X81794702Y-71907553D01*
X81747416Y-71263643D01*
X81747416Y-68475000D01*
X97949344Y-68475000D01*
X97949344Y-69325000D01*
X97961604Y-69449482D01*
X97997914Y-69569180D01*
X98056879Y-69679494D01*
X98136231Y-69776185D01*
X98232922Y-69855537D01*
X98343236Y-69914502D01*
X98462934Y-69950812D01*
X98587416Y-69963072D01*
X99437416Y-69963072D01*
X99561898Y-69950812D01*
X99681596Y-69914502D01*
X99791910Y-69855537D01*
X99794413Y-69853483D01*
X99953225Y-69919265D01*
X100158015Y-69960000D01*
X100366817Y-69960000D01*
X100571607Y-69919265D01*
X100764514Y-69839360D01*
X100887416Y-69757240D01*
X101010318Y-69839360D01*
X101203225Y-69919265D01*
X101408015Y-69960000D01*
X101616817Y-69960000D01*
X101821607Y-69919265D01*
X102014514Y-69839360D01*
X102188127Y-69723356D01*
X102225405Y-69686078D01*
X102243560Y-69830210D01*
X102435004Y-69913560D01*
X102639032Y-69957959D01*
X102847800Y-69961702D01*
X103053286Y-69924644D01*
X103247595Y-69848210D01*
X103281272Y-69830210D01*
X103307197Y-69624386D01*
X102762416Y-69079605D01*
X102748274Y-69093748D01*
X102572416Y-68917890D01*
X102572416Y-68910395D01*
X102582811Y-68900000D01*
X102942021Y-68900000D01*
X103486802Y-69444781D01*
X103692626Y-69418856D01*
X103775976Y-69227412D01*
X103820375Y-69023384D01*
X103824118Y-68814616D01*
X103787060Y-68609130D01*
X103710626Y-68414821D01*
X103692626Y-68381144D01*
X103486802Y-68355219D01*
X102942021Y-68900000D01*
X102582811Y-68900000D01*
X102572416Y-68889605D01*
X102572416Y-68882110D01*
X102748274Y-68706253D01*
X102762416Y-68720395D01*
X103307197Y-68175614D01*
X103281272Y-67969790D01*
X103089828Y-67886440D01*
X102885800Y-67842041D01*
X102677032Y-67838298D01*
X102471546Y-67875356D01*
X102277237Y-67951790D01*
X102243560Y-67969790D01*
X102225405Y-68113922D01*
X102188127Y-68076644D01*
X102014514Y-67960640D01*
X101821607Y-67880735D01*
X101616817Y-67840000D01*
X101408015Y-67840000D01*
X101203225Y-67880735D01*
X101010318Y-67960640D01*
X100887416Y-68042760D01*
X100764514Y-67960640D01*
X100571607Y-67880735D01*
X100366817Y-67840000D01*
X100158015Y-67840000D01*
X99953225Y-67880735D01*
X99794413Y-67946517D01*
X99791910Y-67944463D01*
X99681596Y-67885498D01*
X99561898Y-67849188D01*
X99437416Y-67836928D01*
X98587416Y-67836928D01*
X98462934Y-67849188D01*
X98343236Y-67885498D01*
X98232922Y-67944463D01*
X98136231Y-68023815D01*
X98056879Y-68120506D01*
X97997914Y-68230820D01*
X97961604Y-68350518D01*
X97949344Y-68475000D01*
X81747416Y-68475000D01*
X81747416Y-63188653D01*
X95977416Y-63188653D01*
X95977416Y-63392531D01*
X96017190Y-63592490D01*
X96095211Y-63780848D01*
X96208479Y-63950366D01*
X96352642Y-64094529D01*
X96522160Y-64207797D01*
X96710518Y-64285818D01*
X96910477Y-64325592D01*
X97114355Y-64325592D01*
X97314314Y-64285818D01*
X97502672Y-64207797D01*
X97672190Y-64094529D01*
X97716127Y-64050592D01*
X98025093Y-64050592D01*
X98062415Y-64054268D01*
X98099737Y-64050592D01*
X98099748Y-64050592D01*
X98211401Y-64039595D01*
X98354662Y-63996138D01*
X98486691Y-63925566D01*
X98602416Y-63830593D01*
X98626219Y-63801590D01*
X99102217Y-63325592D01*
X99164354Y-63325592D01*
X99364313Y-63285818D01*
X99552671Y-63207797D01*
X99722189Y-63094529D01*
X99866352Y-62950366D01*
X99979620Y-62780848D01*
X100057641Y-62592490D01*
X100097415Y-62392531D01*
X100097415Y-62188653D01*
X100057641Y-61988694D01*
X99979620Y-61800336D01*
X99866352Y-61630818D01*
X99722189Y-61486655D01*
X99552671Y-61373387D01*
X99364313Y-61295366D01*
X99164354Y-61255592D01*
X98960476Y-61255592D01*
X98760517Y-61295366D01*
X98572159Y-61373387D01*
X98402641Y-61486655D01*
X98258478Y-61630818D01*
X98145210Y-61800336D01*
X98067189Y-61988694D01*
X98027415Y-62188653D01*
X98027415Y-62250790D01*
X97747614Y-62530592D01*
X97716127Y-62530592D01*
X97672190Y-62486655D01*
X97502672Y-62373387D01*
X97314314Y-62295366D01*
X97114355Y-62255592D01*
X96910477Y-62255592D01*
X96710518Y-62295366D01*
X96522160Y-62373387D01*
X96352642Y-62486655D01*
X96208479Y-62630818D01*
X96095211Y-62800336D01*
X96017190Y-62988694D01*
X95977416Y-63188653D01*
X81747416Y-63188653D01*
X81747416Y-58011369D01*
X85177416Y-58011369D01*
X85177416Y-58569815D01*
X85286364Y-59117531D01*
X85500072Y-59633468D01*
X85810328Y-60097799D01*
X86205209Y-60492680D01*
X86669540Y-60802936D01*
X87185477Y-61016644D01*
X87733193Y-61125592D01*
X88291639Y-61125592D01*
X88839355Y-61016644D01*
X89355292Y-60802936D01*
X89819623Y-60492680D01*
X90214504Y-60097799D01*
X90524760Y-59633468D01*
X90738468Y-59117531D01*
X90847416Y-58569815D01*
X90847416Y-58011369D01*
X90738468Y-57463653D01*
X90524760Y-56947716D01*
X90214504Y-56483385D01*
X89819623Y-56088504D01*
X89355292Y-55778248D01*
X88839355Y-55564540D01*
X88291639Y-55455592D01*
X87733193Y-55455592D01*
X87185477Y-55564540D01*
X86669540Y-55778248D01*
X86205209Y-56088504D01*
X85810328Y-56483385D01*
X85500072Y-56947716D01*
X85286364Y-57463653D01*
X85177416Y-58011369D01*
X81747416Y-58011369D01*
X81747416Y-45385602D01*
X94153730Y-45385602D01*
X94157407Y-45422934D01*
X94157406Y-48074999D01*
X94153730Y-48112322D01*
X94157406Y-48149644D01*
X94157406Y-48149654D01*
X94168403Y-48261307D01*
X94200031Y-48365571D01*
X94211860Y-48404568D01*
X94282432Y-48536598D01*
X94305780Y-48565047D01*
X94377405Y-48652323D01*
X94406409Y-48676126D01*
X95511878Y-49781596D01*
X95535676Y-49810594D01*
X95564674Y-49834392D01*
X95651401Y-49905567D01*
X95783430Y-49976139D01*
X95926691Y-50019596D01*
X96075677Y-50034270D01*
X96113010Y-50030593D01*
X98584712Y-50030593D01*
X98622034Y-50034269D01*
X98659356Y-50030593D01*
X98659367Y-50030593D01*
X98771020Y-50019596D01*
X98914281Y-49976139D01*
X99046310Y-49905567D01*
X99162035Y-49810594D01*
X99185838Y-49781590D01*
X99246923Y-49720505D01*
X101301216Y-51774800D01*
X101301217Y-57538080D01*
X101208479Y-57630818D01*
X101095211Y-57800336D01*
X101017190Y-57988694D01*
X100977416Y-58188653D01*
X100977416Y-58392531D01*
X101017190Y-58592490D01*
X101095211Y-58780848D01*
X101208479Y-58950366D01*
X101315056Y-59056943D01*
X100792607Y-59579392D01*
X100764927Y-59579392D01*
X100672190Y-59486655D01*
X100502672Y-59373387D01*
X100314314Y-59295366D01*
X100114355Y-59255592D01*
X99910477Y-59255592D01*
X99710518Y-59295366D01*
X99522160Y-59373387D01*
X99352642Y-59486655D01*
X99208479Y-59630818D01*
X99095211Y-59800336D01*
X99017190Y-59988694D01*
X98977416Y-60188653D01*
X98977416Y-60392531D01*
X99017190Y-60592490D01*
X99095211Y-60780848D01*
X99208479Y-60950366D01*
X99352642Y-61094529D01*
X99522160Y-61207797D01*
X99710518Y-61285818D01*
X99910477Y-61325592D01*
X100114355Y-61325592D01*
X100314314Y-61285818D01*
X100502672Y-61207797D01*
X100672190Y-61094529D01*
X100764927Y-61001792D01*
X101052268Y-61001792D01*
X101087194Y-61005232D01*
X101122120Y-61001792D01*
X101122130Y-61001792D01*
X101226614Y-60991501D01*
X101360675Y-60950834D01*
X101484227Y-60884794D01*
X101592521Y-60795919D01*
X101614796Y-60768777D01*
X103216808Y-59166766D01*
X103243944Y-59144496D01*
X103332819Y-59036202D01*
X103356712Y-58991501D01*
X103398859Y-58912651D01*
X103439526Y-58778589D01*
X103448485Y-58687625D01*
X103449817Y-58674105D01*
X103449817Y-58674098D01*
X103453257Y-58639169D01*
X103449817Y-58604241D01*
X103449817Y-58011369D01*
X109177416Y-58011369D01*
X109177416Y-58569815D01*
X109286364Y-59117531D01*
X109500072Y-59633468D01*
X109810328Y-60097799D01*
X110205209Y-60492680D01*
X110669540Y-60802936D01*
X111185477Y-61016644D01*
X111733193Y-61125592D01*
X112291639Y-61125592D01*
X112839355Y-61016644D01*
X113355292Y-60802936D01*
X113819623Y-60492680D01*
X114214504Y-60097799D01*
X114524760Y-59633468D01*
X114738468Y-59117531D01*
X114847416Y-58569815D01*
X114847416Y-58011369D01*
X114738468Y-57463653D01*
X114524760Y-56947716D01*
X114214504Y-56483385D01*
X113819623Y-56088504D01*
X113355292Y-55778248D01*
X112839355Y-55564540D01*
X112291639Y-55455592D01*
X111733193Y-55455592D01*
X111185477Y-55564540D01*
X110669540Y-55778248D01*
X110205209Y-56088504D01*
X109810328Y-56483385D01*
X109500072Y-56947716D01*
X109286364Y-57463653D01*
X109177416Y-58011369D01*
X103449817Y-58011369D01*
X103449817Y-51672245D01*
X103453257Y-51637319D01*
X103449817Y-51602393D01*
X103449817Y-51602384D01*
X103439526Y-51497900D01*
X103398859Y-51363839D01*
X103332819Y-51240287D01*
X103305279Y-51206730D01*
X103266214Y-51159129D01*
X103266210Y-51159125D01*
X103243943Y-51131993D01*
X103216812Y-51109727D01*
X102137678Y-50030593D01*
X103911833Y-50030593D01*
X103949155Y-50034269D01*
X103986477Y-50030593D01*
X103986488Y-50030593D01*
X104098141Y-50019596D01*
X104241402Y-49976139D01*
X104373431Y-49905567D01*
X104489156Y-49810594D01*
X104512959Y-49781590D01*
X105618429Y-48676121D01*
X105647427Y-48652323D01*
X105742400Y-48536598D01*
X105812972Y-48404569D01*
X105856429Y-48261308D01*
X105867426Y-48149655D01*
X105867426Y-48149654D01*
X105871103Y-48112322D01*
X105867426Y-48074989D01*
X105867426Y-45422924D01*
X105871102Y-45385602D01*
X105867426Y-45348279D01*
X105867426Y-45348269D01*
X105856429Y-45236616D01*
X105812972Y-45093355D01*
X105794235Y-45058301D01*
X105742400Y-44961325D01*
X105671225Y-44874599D01*
X105647427Y-44845601D01*
X105618430Y-44821804D01*
X104830971Y-44034345D01*
X104916039Y-43988876D01*
X105088865Y-43847041D01*
X105230700Y-43674215D01*
X105336092Y-43477039D01*
X105400993Y-43263091D01*
X105417416Y-43096344D01*
X105417416Y-42384841D01*
X105400993Y-42218094D01*
X105336092Y-42004146D01*
X105230700Y-41806969D01*
X105088865Y-41634143D01*
X104916039Y-41492308D01*
X104718863Y-41386916D01*
X104504915Y-41322015D01*
X104282416Y-41300101D01*
X104059918Y-41322015D01*
X103845970Y-41386916D01*
X103648794Y-41492308D01*
X103475968Y-41634143D01*
X103334133Y-41806969D01*
X103241329Y-41980592D01*
X96783502Y-41980592D01*
X96690700Y-41806969D01*
X96548865Y-41634143D01*
X96376039Y-41492308D01*
X96178863Y-41386916D01*
X95964915Y-41322015D01*
X95742416Y-41300101D01*
X95519918Y-41322015D01*
X95305970Y-41386916D01*
X95108794Y-41492308D01*
X94935968Y-41634143D01*
X94794133Y-41806969D01*
X94688740Y-42004145D01*
X94623839Y-42218093D01*
X94607416Y-42384840D01*
X94607416Y-43096343D01*
X94623839Y-43263090D01*
X94688740Y-43477038D01*
X94794132Y-43674215D01*
X94935967Y-43847041D01*
X95108793Y-43988876D01*
X95193861Y-44034345D01*
X94406404Y-44821803D01*
X94377406Y-44845601D01*
X94353608Y-44874599D01*
X94353607Y-44874600D01*
X94282432Y-44961326D01*
X94211860Y-45093356D01*
X94168404Y-45236617D01*
X94153730Y-45385602D01*
X81747416Y-45385602D01*
X81747416Y-45323323D01*
X81817697Y-44535845D01*
X82017647Y-43804949D01*
X82343866Y-43121017D01*
X82786042Y-42505664D01*
X83330205Y-41978333D01*
X83959142Y-41555706D01*
X84652986Y-41251129D01*
X85395455Y-41072877D01*
X86039365Y-41025592D01*
X113979685Y-41025592D01*
X114767163Y-41095873D01*
X114767163Y-41095873D01*
G37*
X114767163Y-41095873D02*
X115498059Y-41295823D01*
X116181991Y-41622042D01*
X116797344Y-42064218D01*
X117324675Y-42608381D01*
X117747302Y-43237318D01*
X118051879Y-43931162D01*
X118230131Y-44673631D01*
X118277416Y-45317541D01*
X118277417Y-71257850D01*
X118207135Y-72045340D01*
X118007185Y-72776235D01*
X117680966Y-73460167D01*
X117238790Y-74075520D01*
X116694627Y-74602851D01*
X116065690Y-75025478D01*
X115371845Y-75330056D01*
X114629377Y-75508306D01*
X113985467Y-75555592D01*
X86045147Y-75555592D01*
X85257668Y-75485311D01*
X84526773Y-75285361D01*
X83842841Y-74959142D01*
X83227488Y-74516966D01*
X82700157Y-73972803D01*
X82277530Y-73343866D01*
X81972952Y-72650021D01*
X81794702Y-71907553D01*
X81747416Y-71263643D01*
X81747416Y-68475000D01*
X97949344Y-68475000D01*
X97949344Y-69325000D01*
X97961604Y-69449482D01*
X97997914Y-69569180D01*
X98056879Y-69679494D01*
X98136231Y-69776185D01*
X98232922Y-69855537D01*
X98343236Y-69914502D01*
X98462934Y-69950812D01*
X98587416Y-69963072D01*
X99437416Y-69963072D01*
X99561898Y-69950812D01*
X99681596Y-69914502D01*
X99791910Y-69855537D01*
X99794413Y-69853483D01*
X99953225Y-69919265D01*
X100158015Y-69960000D01*
X100366817Y-69960000D01*
X100571607Y-69919265D01*
X100764514Y-69839360D01*
X100887416Y-69757240D01*
X101010318Y-69839360D01*
X101203225Y-69919265D01*
X101408015Y-69960000D01*
X101616817Y-69960000D01*
X101821607Y-69919265D01*
X102014514Y-69839360D01*
X102188127Y-69723356D01*
X102225405Y-69686078D01*
X102243560Y-69830210D01*
X102435004Y-69913560D01*
X102639032Y-69957959D01*
X102847800Y-69961702D01*
X103053286Y-69924644D01*
X103247595Y-69848210D01*
X103281272Y-69830210D01*
X103307197Y-69624386D01*
X102762416Y-69079605D01*
X102748274Y-69093748D01*
X102572416Y-68917890D01*
X102572416Y-68910395D01*
X102582811Y-68900000D01*
X102942021Y-68900000D01*
X103486802Y-69444781D01*
X103692626Y-69418856D01*
X103775976Y-69227412D01*
X103820375Y-69023384D01*
X103824118Y-68814616D01*
X103787060Y-68609130D01*
X103710626Y-68414821D01*
X103692626Y-68381144D01*
X103486802Y-68355219D01*
X102942021Y-68900000D01*
X102582811Y-68900000D01*
X102572416Y-68889605D01*
X102572416Y-68882110D01*
X102748274Y-68706253D01*
X102762416Y-68720395D01*
X103307197Y-68175614D01*
X103281272Y-67969790D01*
X103089828Y-67886440D01*
X102885800Y-67842041D01*
X102677032Y-67838298D01*
X102471546Y-67875356D01*
X102277237Y-67951790D01*
X102243560Y-67969790D01*
X102225405Y-68113922D01*
X102188127Y-68076644D01*
X102014514Y-67960640D01*
X101821607Y-67880735D01*
X101616817Y-67840000D01*
X101408015Y-67840000D01*
X101203225Y-67880735D01*
X101010318Y-67960640D01*
X100887416Y-68042760D01*
X100764514Y-67960640D01*
X100571607Y-67880735D01*
X100366817Y-67840000D01*
X100158015Y-67840000D01*
X99953225Y-67880735D01*
X99794413Y-67946517D01*
X99791910Y-67944463D01*
X99681596Y-67885498D01*
X99561898Y-67849188D01*
X99437416Y-67836928D01*
X98587416Y-67836928D01*
X98462934Y-67849188D01*
X98343236Y-67885498D01*
X98232922Y-67944463D01*
X98136231Y-68023815D01*
X98056879Y-68120506D01*
X97997914Y-68230820D01*
X97961604Y-68350518D01*
X97949344Y-68475000D01*
X81747416Y-68475000D01*
X81747416Y-63188653D01*
X95977416Y-63188653D01*
X95977416Y-63392531D01*
X96017190Y-63592490D01*
X96095211Y-63780848D01*
X96208479Y-63950366D01*
X96352642Y-64094529D01*
X96522160Y-64207797D01*
X96710518Y-64285818D01*
X96910477Y-64325592D01*
X97114355Y-64325592D01*
X97314314Y-64285818D01*
X97502672Y-64207797D01*
X97672190Y-64094529D01*
X97716127Y-64050592D01*
X98025093Y-64050592D01*
X98062415Y-64054268D01*
X98099737Y-64050592D01*
X98099748Y-64050592D01*
X98211401Y-64039595D01*
X98354662Y-63996138D01*
X98486691Y-63925566D01*
X98602416Y-63830593D01*
X98626219Y-63801590D01*
X99102217Y-63325592D01*
X99164354Y-63325592D01*
X99364313Y-63285818D01*
X99552671Y-63207797D01*
X99722189Y-63094529D01*
X99866352Y-62950366D01*
X99979620Y-62780848D01*
X100057641Y-62592490D01*
X100097415Y-62392531D01*
X100097415Y-62188653D01*
X100057641Y-61988694D01*
X99979620Y-61800336D01*
X99866352Y-61630818D01*
X99722189Y-61486655D01*
X99552671Y-61373387D01*
X99364313Y-61295366D01*
X99164354Y-61255592D01*
X98960476Y-61255592D01*
X98760517Y-61295366D01*
X98572159Y-61373387D01*
X98402641Y-61486655D01*
X98258478Y-61630818D01*
X98145210Y-61800336D01*
X98067189Y-61988694D01*
X98027415Y-62188653D01*
X98027415Y-62250790D01*
X97747614Y-62530592D01*
X97716127Y-62530592D01*
X97672190Y-62486655D01*
X97502672Y-62373387D01*
X97314314Y-62295366D01*
X97114355Y-62255592D01*
X96910477Y-62255592D01*
X96710518Y-62295366D01*
X96522160Y-62373387D01*
X96352642Y-62486655D01*
X96208479Y-62630818D01*
X96095211Y-62800336D01*
X96017190Y-62988694D01*
X95977416Y-63188653D01*
X81747416Y-63188653D01*
X81747416Y-58011369D01*
X85177416Y-58011369D01*
X85177416Y-58569815D01*
X85286364Y-59117531D01*
X85500072Y-59633468D01*
X85810328Y-60097799D01*
X86205209Y-60492680D01*
X86669540Y-60802936D01*
X87185477Y-61016644D01*
X87733193Y-61125592D01*
X88291639Y-61125592D01*
X88839355Y-61016644D01*
X89355292Y-60802936D01*
X89819623Y-60492680D01*
X90214504Y-60097799D01*
X90524760Y-59633468D01*
X90738468Y-59117531D01*
X90847416Y-58569815D01*
X90847416Y-58011369D01*
X90738468Y-57463653D01*
X90524760Y-56947716D01*
X90214504Y-56483385D01*
X89819623Y-56088504D01*
X89355292Y-55778248D01*
X88839355Y-55564540D01*
X88291639Y-55455592D01*
X87733193Y-55455592D01*
X87185477Y-55564540D01*
X86669540Y-55778248D01*
X86205209Y-56088504D01*
X85810328Y-56483385D01*
X85500072Y-56947716D01*
X85286364Y-57463653D01*
X85177416Y-58011369D01*
X81747416Y-58011369D01*
X81747416Y-45385602D01*
X94153730Y-45385602D01*
X94157407Y-45422934D01*
X94157406Y-48074999D01*
X94153730Y-48112322D01*
X94157406Y-48149644D01*
X94157406Y-48149654D01*
X94168403Y-48261307D01*
X94200031Y-48365571D01*
X94211860Y-48404568D01*
X94282432Y-48536598D01*
X94305780Y-48565047D01*
X94377405Y-48652323D01*
X94406409Y-48676126D01*
X95511878Y-49781596D01*
X95535676Y-49810594D01*
X95564674Y-49834392D01*
X95651401Y-49905567D01*
X95783430Y-49976139D01*
X95926691Y-50019596D01*
X96075677Y-50034270D01*
X96113010Y-50030593D01*
X98584712Y-50030593D01*
X98622034Y-50034269D01*
X98659356Y-50030593D01*
X98659367Y-50030593D01*
X98771020Y-50019596D01*
X98914281Y-49976139D01*
X99046310Y-49905567D01*
X99162035Y-49810594D01*
X99185838Y-49781590D01*
X99246923Y-49720505D01*
X101301216Y-51774800D01*
X101301217Y-57538080D01*
X101208479Y-57630818D01*
X101095211Y-57800336D01*
X101017190Y-57988694D01*
X100977416Y-58188653D01*
X100977416Y-58392531D01*
X101017190Y-58592490D01*
X101095211Y-58780848D01*
X101208479Y-58950366D01*
X101315056Y-59056943D01*
X100792607Y-59579392D01*
X100764927Y-59579392D01*
X100672190Y-59486655D01*
X100502672Y-59373387D01*
X100314314Y-59295366D01*
X100114355Y-59255592D01*
X99910477Y-59255592D01*
X99710518Y-59295366D01*
X99522160Y-59373387D01*
X99352642Y-59486655D01*
X99208479Y-59630818D01*
X99095211Y-59800336D01*
X99017190Y-59988694D01*
X98977416Y-60188653D01*
X98977416Y-60392531D01*
X99017190Y-60592490D01*
X99095211Y-60780848D01*
X99208479Y-60950366D01*
X99352642Y-61094529D01*
X99522160Y-61207797D01*
X99710518Y-61285818D01*
X99910477Y-61325592D01*
X100114355Y-61325592D01*
X100314314Y-61285818D01*
X100502672Y-61207797D01*
X100672190Y-61094529D01*
X100764927Y-61001792D01*
X101052268Y-61001792D01*
X101087194Y-61005232D01*
X101122120Y-61001792D01*
X101122130Y-61001792D01*
X101226614Y-60991501D01*
X101360675Y-60950834D01*
X101484227Y-60884794D01*
X101592521Y-60795919D01*
X101614796Y-60768777D01*
X103216808Y-59166766D01*
X103243944Y-59144496D01*
X103332819Y-59036202D01*
X103356712Y-58991501D01*
X103398859Y-58912651D01*
X103439526Y-58778589D01*
X103448485Y-58687625D01*
X103449817Y-58674105D01*
X103449817Y-58674098D01*
X103453257Y-58639169D01*
X103449817Y-58604241D01*
X103449817Y-58011369D01*
X109177416Y-58011369D01*
X109177416Y-58569815D01*
X109286364Y-59117531D01*
X109500072Y-59633468D01*
X109810328Y-60097799D01*
X110205209Y-60492680D01*
X110669540Y-60802936D01*
X111185477Y-61016644D01*
X111733193Y-61125592D01*
X112291639Y-61125592D01*
X112839355Y-61016644D01*
X113355292Y-60802936D01*
X113819623Y-60492680D01*
X114214504Y-60097799D01*
X114524760Y-59633468D01*
X114738468Y-59117531D01*
X114847416Y-58569815D01*
X114847416Y-58011369D01*
X114738468Y-57463653D01*
X114524760Y-56947716D01*
X114214504Y-56483385D01*
X113819623Y-56088504D01*
X113355292Y-55778248D01*
X112839355Y-55564540D01*
X112291639Y-55455592D01*
X111733193Y-55455592D01*
X111185477Y-55564540D01*
X110669540Y-55778248D01*
X110205209Y-56088504D01*
X109810328Y-56483385D01*
X109500072Y-56947716D01*
X109286364Y-57463653D01*
X109177416Y-58011369D01*
X103449817Y-58011369D01*
X103449817Y-51672245D01*
X103453257Y-51637319D01*
X103449817Y-51602393D01*
X103449817Y-51602384D01*
X103439526Y-51497900D01*
X103398859Y-51363839D01*
X103332819Y-51240287D01*
X103305279Y-51206730D01*
X103266214Y-51159129D01*
X103266210Y-51159125D01*
X103243943Y-51131993D01*
X103216812Y-51109727D01*
X102137678Y-50030593D01*
X103911833Y-50030593D01*
X103949155Y-50034269D01*
X103986477Y-50030593D01*
X103986488Y-50030593D01*
X104098141Y-50019596D01*
X104241402Y-49976139D01*
X104373431Y-49905567D01*
X104489156Y-49810594D01*
X104512959Y-49781590D01*
X105618429Y-48676121D01*
X105647427Y-48652323D01*
X105742400Y-48536598D01*
X105812972Y-48404569D01*
X105856429Y-48261308D01*
X105867426Y-48149655D01*
X105867426Y-48149654D01*
X105871103Y-48112322D01*
X105867426Y-48074989D01*
X105867426Y-45422924D01*
X105871102Y-45385602D01*
X105867426Y-45348279D01*
X105867426Y-45348269D01*
X105856429Y-45236616D01*
X105812972Y-45093355D01*
X105794235Y-45058301D01*
X105742400Y-44961325D01*
X105671225Y-44874599D01*
X105647427Y-44845601D01*
X105618430Y-44821804D01*
X104830971Y-44034345D01*
X104916039Y-43988876D01*
X105088865Y-43847041D01*
X105230700Y-43674215D01*
X105336092Y-43477039D01*
X105400993Y-43263091D01*
X105417416Y-43096344D01*
X105417416Y-42384841D01*
X105400993Y-42218094D01*
X105336092Y-42004146D01*
X105230700Y-41806969D01*
X105088865Y-41634143D01*
X104916039Y-41492308D01*
X104718863Y-41386916D01*
X104504915Y-41322015D01*
X104282416Y-41300101D01*
X104059918Y-41322015D01*
X103845970Y-41386916D01*
X103648794Y-41492308D01*
X103475968Y-41634143D01*
X103334133Y-41806969D01*
X103241329Y-41980592D01*
X96783502Y-41980592D01*
X96690700Y-41806969D01*
X96548865Y-41634143D01*
X96376039Y-41492308D01*
X96178863Y-41386916D01*
X95964915Y-41322015D01*
X95742416Y-41300101D01*
X95519918Y-41322015D01*
X95305970Y-41386916D01*
X95108794Y-41492308D01*
X94935968Y-41634143D01*
X94794133Y-41806969D01*
X94688740Y-42004145D01*
X94623839Y-42218093D01*
X94607416Y-42384840D01*
X94607416Y-43096343D01*
X94623839Y-43263090D01*
X94688740Y-43477038D01*
X94794132Y-43674215D01*
X94935967Y-43847041D01*
X95108793Y-43988876D01*
X95193861Y-44034345D01*
X94406404Y-44821803D01*
X94377406Y-44845601D01*
X94353608Y-44874599D01*
X94353607Y-44874600D01*
X94282432Y-44961326D01*
X94211860Y-45093356D01*
X94168404Y-45236617D01*
X94153730Y-45385602D01*
X81747416Y-45385602D01*
X81747416Y-45323323D01*
X81817697Y-44535845D01*
X82017647Y-43804949D01*
X82343866Y-43121017D01*
X82786042Y-42505664D01*
X83330205Y-41978333D01*
X83959142Y-41555706D01*
X84652986Y-41251129D01*
X85395455Y-41072877D01*
X86039365Y-41025592D01*
X113979685Y-41025592D01*
X114767163Y-41095873D01*
G36*
X104347426Y-45700404D02*
G01*
X104347426Y-46036504D01*
X104282416Y-46030101D01*
X104059918Y-46052015D01*
X103845970Y-46116916D01*
X103648794Y-46222308D01*
X103475968Y-46364143D01*
X103334133Y-46536969D01*
X103228740Y-46734145D01*
X103163839Y-46948093D01*
X103147416Y-47114840D01*
X103147416Y-47297947D01*
X103024380Y-47174911D01*
X102867147Y-47069851D01*
X102692438Y-46997484D01*
X102506968Y-46960592D01*
X102317864Y-46960592D01*
X102132394Y-46997484D01*
X102012416Y-47047181D01*
X101892438Y-46997484D01*
X101706968Y-46960592D01*
X101517864Y-46960592D01*
X101332394Y-46997484D01*
X101224487Y-47042181D01*
X101092438Y-46987484D01*
X100906968Y-46950592D01*
X100717864Y-46950592D01*
X100532394Y-46987484D01*
X100357685Y-47059851D01*
X100200452Y-47164911D01*
X100066735Y-47298628D01*
X100009075Y-47384922D01*
X99958097Y-47308628D01*
X99824380Y-47174911D01*
X99667147Y-47069851D01*
X99492438Y-46997484D01*
X99306968Y-46960592D01*
X99117864Y-46960592D01*
X98932394Y-46997484D01*
X98812416Y-47047181D01*
X98692438Y-46997484D01*
X98506968Y-46960592D01*
X98317864Y-46960592D01*
X98132394Y-46997484D01*
X98012416Y-47047181D01*
X97892438Y-46997484D01*
X97706968Y-46960592D01*
X97517864Y-46960592D01*
X97332394Y-46997484D01*
X97157685Y-47069851D01*
X97000452Y-47174911D01*
X96877416Y-47297947D01*
X96877416Y-47114841D01*
X96860993Y-46948094D01*
X96796092Y-46734146D01*
X96690700Y-46536969D01*
X96548865Y-46364143D01*
X96376039Y-46222308D01*
X96178863Y-46116916D01*
X95964915Y-46052015D01*
X95742416Y-46030101D01*
X95677406Y-46036504D01*
X95677406Y-45700403D01*
X96327218Y-45050592D01*
X103697615Y-45050592D01*
X104347426Y-45700404D01*
X104347426Y-45700404D01*
G37*
X104347426Y-45700404D02*
X104347426Y-46036504D01*
X104282416Y-46030101D01*
X104059918Y-46052015D01*
X103845970Y-46116916D01*
X103648794Y-46222308D01*
X103475968Y-46364143D01*
X103334133Y-46536969D01*
X103228740Y-46734145D01*
X103163839Y-46948093D01*
X103147416Y-47114840D01*
X103147416Y-47297947D01*
X103024380Y-47174911D01*
X102867147Y-47069851D01*
X102692438Y-46997484D01*
X102506968Y-46960592D01*
X102317864Y-46960592D01*
X102132394Y-46997484D01*
X102012416Y-47047181D01*
X101892438Y-46997484D01*
X101706968Y-46960592D01*
X101517864Y-46960592D01*
X101332394Y-46997484D01*
X101224487Y-47042181D01*
X101092438Y-46987484D01*
X100906968Y-46950592D01*
X100717864Y-46950592D01*
X100532394Y-46987484D01*
X100357685Y-47059851D01*
X100200452Y-47164911D01*
X100066735Y-47298628D01*
X100009075Y-47384922D01*
X99958097Y-47308628D01*
X99824380Y-47174911D01*
X99667147Y-47069851D01*
X99492438Y-46997484D01*
X99306968Y-46960592D01*
X99117864Y-46960592D01*
X98932394Y-46997484D01*
X98812416Y-47047181D01*
X98692438Y-46997484D01*
X98506968Y-46960592D01*
X98317864Y-46960592D01*
X98132394Y-46997484D01*
X98012416Y-47047181D01*
X97892438Y-46997484D01*
X97706968Y-46960592D01*
X97517864Y-46960592D01*
X97332394Y-46997484D01*
X97157685Y-47069851D01*
X97000452Y-47174911D01*
X96877416Y-47297947D01*
X96877416Y-47114841D01*
X96860993Y-46948094D01*
X96796092Y-46734146D01*
X96690700Y-46536969D01*
X96548865Y-46364143D01*
X96376039Y-46222308D01*
X96178863Y-46116916D01*
X95964915Y-46052015D01*
X95742416Y-46030101D01*
X95677406Y-46036504D01*
X95677406Y-45700403D01*
X96327218Y-45050592D01*
X103697615Y-45050592D01*
X104347426Y-45700404D01*
M02*
