G04 #@! TF.GenerationSoftware,KiCad,Pcbnew,(5.1.2-1)-1*
G04 #@! TF.CreationDate,2019-10-04T22:48:54-06:00*
G04 #@! TF.ProjectId,USBCBreakout,55534243-4272-4656-916b-6f75742e6b69,rev?*
G04 #@! TF.SameCoordinates,Original*
G04 #@! TF.FileFunction,Legend,Top*
G04 #@! TF.FilePolarity,Positive*
%FSLAX46Y46*%
G04 Gerber Fmt 4.6, Leading zero omitted, Abs format (unit mm)*
G04 Created by KiCad (PCBNEW (5.1.2-1)-1) date 2019-10-04 22:48:54*
%MOMM*%
%LPD*%
G04 APERTURE LIST*
%ADD10C,0.100000*%
%ADD11C,0.120000*%
%ADD12C,0.150000*%
G04 APERTURE END LIST*
D10*
X103759047Y-73730000D02*
X103711428Y-73706190D01*
X103640000Y-73706190D01*
X103568571Y-73730000D01*
X103520952Y-73777619D01*
X103497142Y-73825238D01*
X103473333Y-73920476D01*
X103473333Y-73991904D01*
X103497142Y-74087142D01*
X103520952Y-74134761D01*
X103568571Y-74182380D01*
X103640000Y-74206190D01*
X103687619Y-74206190D01*
X103759047Y-74182380D01*
X103782857Y-74158571D01*
X103782857Y-73991904D01*
X103687619Y-73991904D01*
X103997142Y-74206190D02*
X103997142Y-73706190D01*
X104282857Y-74206190D01*
X104282857Y-73706190D01*
X104520952Y-74206190D02*
X104520952Y-73706190D01*
X104640000Y-73706190D01*
X104711428Y-73730000D01*
X104759047Y-73777619D01*
X104782857Y-73825238D01*
X104806666Y-73920476D01*
X104806666Y-73991904D01*
X104782857Y-74087142D01*
X104759047Y-74134761D01*
X104711428Y-74182380D01*
X104640000Y-74206190D01*
X104520952Y-74206190D01*
X101159523Y-74206190D02*
X101159523Y-73706190D01*
X101278571Y-73706190D01*
X101350000Y-73730000D01*
X101397619Y-73777619D01*
X101421428Y-73825238D01*
X101445238Y-73920476D01*
X101445238Y-73991904D01*
X101421428Y-74087142D01*
X101397619Y-74134761D01*
X101350000Y-74182380D01*
X101278571Y-74206190D01*
X101159523Y-74206190D01*
X101659523Y-74015714D02*
X102040476Y-74015714D01*
X101850000Y-74206190D02*
X101850000Y-73825238D01*
X98619523Y-74206190D02*
X98619523Y-73706190D01*
X98738571Y-73706190D01*
X98810000Y-73730000D01*
X98857619Y-73777619D01*
X98881428Y-73825238D01*
X98905238Y-73920476D01*
X98905238Y-73991904D01*
X98881428Y-74087142D01*
X98857619Y-74134761D01*
X98810000Y-74182380D01*
X98738571Y-74206190D01*
X98619523Y-74206190D01*
X99119523Y-74015714D02*
X99500476Y-74015714D01*
X95877142Y-74015714D02*
X96258095Y-74015714D01*
X96067619Y-74206190D02*
X96067619Y-73825238D01*
X96734285Y-73706190D02*
X96496190Y-73706190D01*
X96472380Y-73944285D01*
X96496190Y-73920476D01*
X96543809Y-73896666D01*
X96662857Y-73896666D01*
X96710476Y-73920476D01*
X96734285Y-73944285D01*
X96758095Y-73991904D01*
X96758095Y-74110952D01*
X96734285Y-74158571D01*
X96710476Y-74182380D01*
X96662857Y-74206190D01*
X96543809Y-74206190D01*
X96496190Y-74182380D01*
X96472380Y-74158571D01*
X96900952Y-73706190D02*
X97067619Y-74206190D01*
X97234285Y-73706190D01*
D11*
X104942416Y-55290592D02*
X104942416Y-53290592D01*
X107082416Y-53290592D02*
X107082416Y-55290592D01*
X100918352Y-55890592D02*
X100918352Y-54690592D01*
X102678352Y-54690592D02*
X102678352Y-55890592D01*
X97346480Y-55890592D02*
X97346480Y-54690592D01*
X99106480Y-54690592D02*
X99106480Y-55890592D01*
X104412416Y-73500000D02*
X100887416Y-73500000D01*
X104412416Y-67700000D02*
X104412416Y-73500000D01*
X103262416Y-67700000D02*
X104412416Y-67700000D01*
X103262416Y-68000000D02*
X103262416Y-67700000D01*
X100887416Y-68000000D02*
X103262416Y-68000000D01*
X97362416Y-73500000D02*
X100887416Y-73500000D01*
X97362416Y-67700000D02*
X97362416Y-73500000D01*
X98512416Y-67700000D02*
X97362416Y-67700000D01*
X98512416Y-68000000D02*
X98512416Y-67700000D01*
X100887416Y-68000000D02*
X98512416Y-68000000D01*
X98762416Y-67450000D02*
X98262416Y-67450000D01*
X98762416Y-67750000D02*
X98762416Y-67450000D01*
D12*
X100662416Y-58840592D02*
X99362416Y-58840592D01*
X100662416Y-61740592D02*
X100662416Y-58840592D01*
X99362416Y-61740592D02*
X100662416Y-61740592D01*
X99362416Y-61740592D02*
X99362416Y-58840592D01*
X98274320Y-50742972D02*
X98274320Y-51552496D01*
X98321939Y-51647734D01*
X98369558Y-51695353D01*
X98464796Y-51742972D01*
X98655273Y-51742972D01*
X98750511Y-51695353D01*
X98798130Y-51647734D01*
X98845749Y-51552496D01*
X98845749Y-50742972D01*
X99274320Y-51695353D02*
X99417177Y-51742972D01*
X99655273Y-51742972D01*
X99750511Y-51695353D01*
X99798130Y-51647734D01*
X99845749Y-51552496D01*
X99845749Y-51457258D01*
X99798130Y-51362020D01*
X99750511Y-51314401D01*
X99655273Y-51266782D01*
X99464796Y-51219163D01*
X99369558Y-51171544D01*
X99321939Y-51123925D01*
X99274320Y-51028687D01*
X99274320Y-50933449D01*
X99321939Y-50838211D01*
X99369558Y-50790592D01*
X99464796Y-50742972D01*
X99702892Y-50742972D01*
X99845749Y-50790592D01*
X100607654Y-51219163D02*
X100750511Y-51266782D01*
X100798130Y-51314401D01*
X100845749Y-51409639D01*
X100845749Y-51552496D01*
X100798130Y-51647734D01*
X100750511Y-51695353D01*
X100655273Y-51742972D01*
X100274320Y-51742972D01*
X100274320Y-50742972D01*
X100607654Y-50742972D01*
X100702892Y-50790592D01*
X100750511Y-50838211D01*
X100798130Y-50933449D01*
X100798130Y-51028687D01*
X100750511Y-51123925D01*
X100702892Y-51171544D01*
X100607654Y-51219163D01*
X100274320Y-51219163D01*
X101798130Y-51742972D02*
X101226701Y-51742972D01*
X101512416Y-51742972D02*
X101512416Y-50742972D01*
X101417177Y-50885830D01*
X101321939Y-50981068D01*
X101226701Y-51028687D01*
X103190987Y-54723925D02*
X103190987Y-55057258D01*
X103714796Y-55057258D02*
X102714796Y-55057258D01*
X102714796Y-54581068D01*
X103714796Y-53676306D02*
X103714796Y-54247734D01*
X103714796Y-53962020D02*
X102714796Y-53962020D01*
X102857654Y-54057258D01*
X102952892Y-54152496D01*
X103000511Y-54247734D01*
X100550732Y-55457258D02*
X100074542Y-55790592D01*
X100550732Y-56028687D02*
X99550732Y-56028687D01*
X99550732Y-55647734D01*
X99598352Y-55552496D01*
X99645971Y-55504877D01*
X99741209Y-55457258D01*
X99884066Y-55457258D01*
X99979304Y-55504877D01*
X100026923Y-55552496D01*
X100074542Y-55647734D01*
X100074542Y-56028687D01*
X100550732Y-54504877D02*
X100550732Y-55076306D01*
X100550732Y-54790592D02*
X99550732Y-54790592D01*
X99693590Y-54885830D01*
X99788828Y-54981068D01*
X99836447Y-55076306D01*
X100378860Y-55457258D02*
X99902670Y-55790592D01*
X100378860Y-56028687D02*
X99378860Y-56028687D01*
X99378860Y-55647734D01*
X99426480Y-55552496D01*
X99474099Y-55504877D01*
X99569337Y-55457258D01*
X99712194Y-55457258D01*
X99807432Y-55504877D01*
X99855051Y-55552496D01*
X99902670Y-55647734D01*
X99902670Y-56028687D01*
X99474099Y-55076306D02*
X99426480Y-55028687D01*
X99378860Y-54933449D01*
X99378860Y-54695353D01*
X99426480Y-54600115D01*
X99474099Y-54552496D01*
X99569337Y-54504877D01*
X99664575Y-54504877D01*
X99807432Y-54552496D01*
X100378860Y-55123925D01*
X100378860Y-54504877D01*
X110679082Y-55542972D02*
X110345749Y-55066782D01*
X110107654Y-55542972D02*
X110107654Y-54542972D01*
X110488606Y-54542972D01*
X110583844Y-54590592D01*
X110631463Y-54638211D01*
X110679082Y-54733449D01*
X110679082Y-54876306D01*
X110631463Y-54971544D01*
X110583844Y-55019163D01*
X110488606Y-55066782D01*
X110107654Y-55066782D01*
X111107654Y-55019163D02*
X111440987Y-55019163D01*
X111583844Y-55542972D02*
X111107654Y-55542972D01*
X111107654Y-54542972D01*
X111583844Y-54542972D01*
X112345749Y-55019163D02*
X112012416Y-55019163D01*
X112012416Y-55542972D02*
X112012416Y-54542972D01*
X112488606Y-54542972D01*
X113012416Y-54542972D02*
X113012416Y-54781068D01*
X112774320Y-54685830D02*
X113012416Y-54781068D01*
X113250511Y-54685830D01*
X112869558Y-54971544D02*
X113012416Y-54781068D01*
X113155273Y-54971544D01*
X113774320Y-54542972D02*
X113774320Y-54781068D01*
X113536225Y-54685830D02*
X113774320Y-54781068D01*
X114012416Y-54685830D01*
X113631463Y-54971544D02*
X113774320Y-54781068D01*
X113917177Y-54971544D01*
X86679082Y-55542972D02*
X86345749Y-55066782D01*
X86107654Y-55542972D02*
X86107654Y-54542972D01*
X86488606Y-54542972D01*
X86583844Y-54590592D01*
X86631463Y-54638211D01*
X86679082Y-54733449D01*
X86679082Y-54876306D01*
X86631463Y-54971544D01*
X86583844Y-55019163D01*
X86488606Y-55066782D01*
X86107654Y-55066782D01*
X87107654Y-55019163D02*
X87440987Y-55019163D01*
X87583844Y-55542972D02*
X87107654Y-55542972D01*
X87107654Y-54542972D01*
X87583844Y-54542972D01*
X88345749Y-55019163D02*
X88012416Y-55019163D01*
X88012416Y-55542972D02*
X88012416Y-54542972D01*
X88488606Y-54542972D01*
X89012416Y-54542972D02*
X89012416Y-54781068D01*
X88774320Y-54685830D02*
X89012416Y-54781068D01*
X89250511Y-54685830D01*
X88869558Y-54971544D02*
X89012416Y-54781068D01*
X89155273Y-54971544D01*
X89774320Y-54542972D02*
X89774320Y-54781068D01*
X89536225Y-54685830D02*
X89774320Y-54781068D01*
X90012416Y-54685830D01*
X89631463Y-54971544D02*
X89774320Y-54781068D01*
X89917177Y-54971544D01*
X100554082Y-66102380D02*
X100554082Y-66816666D01*
X100506463Y-66959523D01*
X100411225Y-67054761D01*
X100268368Y-67102380D01*
X100173130Y-67102380D01*
X101554082Y-67102380D02*
X100982654Y-67102380D01*
X101268368Y-67102380D02*
X101268368Y-66102380D01*
X101173130Y-66245238D01*
X101077892Y-66340476D01*
X100982654Y-66388095D01*
X101914796Y-61052496D02*
X102724320Y-61052496D01*
X102819558Y-61004877D01*
X102867177Y-60957258D01*
X102914796Y-60862020D01*
X102914796Y-60671544D01*
X102867177Y-60576306D01*
X102819558Y-60528687D01*
X102724320Y-60481068D01*
X101914796Y-60481068D01*
X102914796Y-59481068D02*
X102914796Y-60052496D01*
X102914796Y-59766782D02*
X101914796Y-59766782D01*
X102057654Y-59862020D01*
X102152892Y-59957258D01*
X102200511Y-60052496D01*
M02*
