M48
; DRILL file {KiCad (5.1.2-1)-1} date Friday, October 04, 2019 at 10:48:57 PM
; FORMAT={-:-/ absolute / inch / decimal}
; #@! TF.CreationDate,2019-10-04T22:48:57-06:00
; #@! TF.GenerationSoftware,Kicad,Pcbnew,(5.1.2-1)-1
FMAT,2
INCH
T1C0.0157
T2C0.0197
T3C0.0236
T4C0.0866
%
G90
G05
T1
X3.8194Y-2.2949
X3.8194Y-2.4918
X3.9001Y-2.4524
X3.9375Y-2.3736
X3.9769Y-2.4524
X4.0162Y-2.2949
X4.095Y-2.2949
X3.8273Y-1.9142
X3.843Y-1.8866
X3.8588Y-1.9142
X3.8745Y-1.8866
X3.8903Y-1.9142
X3.906Y-1.8866
X3.9217Y-1.9142
X3.9532Y-1.9142
X3.969Y-1.8862
X3.9847Y-1.9142
X4.0005Y-1.8866
X4.0162Y-1.9142
X4.032Y-1.8866
X4.0477Y-1.9142
T2
X3.8981Y-2.7126
X3.9473Y-2.7126
X3.9966Y-2.7126
X4.0458Y-2.7126
T4
X3.4651Y-2.2949
X4.4099Y-2.2949
T3
G00X3.7694Y-1.6945
M15
G01X3.7694Y-1.6709
M16
G05
G00X3.7694Y-1.8807
M15
G01X3.7694Y-1.8571
M16
G05
G00X4.1056Y-1.6945
M15
G01X4.1056Y-1.6709
M16
G05
G00X4.1056Y-1.8807
M15
G01X4.1056Y-1.8571
M16
G05
T0
M30
